<svg xmlns="http://www.w3.org/2000/svg" viewBox="0 0 400 400" width="400" height="400">
  <defs>
    <!-- Simplified watercolor texture -->
    <filter id="watercolor" x="-20%" y="-20%" width="140%" height="140%">
      <feTurbulence type="fractalNoise" baseFrequency="0.015" numOctaves="2" result="turbulence" seed="1"/>
      <feGaussianBlur in="turbulence" stdDeviation="0.3" result="blur"/>
      <feComposite operator="over" in="blur" in2="SourceGraphic"/>
    </filter>

    <!-- Refined gradient -->
    <radialGradient id="luxuryGradient" cx="50%" cy="45%">
      <stop offset="0%" style="stop-color:#fce7f3;stop-opacity:0.9" />
      <stop offset="35%" style="stop-color:#f9a8d4;stop-opacity:0.95" />
      <stop offset="70%" style="stop-color:#60a5fa;stop-opacity:1" />
      <stop offset="100%" style="stop-color:#3b82f6;stop-opacity:1" />
    </radialGradient>

    <!-- Subtle gold accent -->
    <linearGradient id="goldAccent" x1="0%" y1="0%" x2="100%" y2="100%">
      <stop offset="0%" style="stop-color:#d4a574;stop-opacity:0.8" />
      <stop offset="100%" style="stop-color:#b08d57;stop-opacity:0.6" />
    </linearGradient>
  </defs>

  <!-- Clean background -->
  <rect width="400" height="400" fill="#fdf8f3" opacity="0.1"/>

  <!-- Subtle gold ring -->
  <circle cx="200" cy="200" r="150" fill="none" stroke="url(#goldAccent)" stroke-width="1" opacity="0.2"/>

  <!-- Main blueberry with refined watercolor effect -->
  <g filter="url(#watercolor)">
    <!-- Base shape -->
    <ellipse cx="200" cy="200" rx="120" ry="115" fill="url(#luxuryGradient)" opacity="0.9"/>

    <!-- Subtle watercolor layers -->
    <ellipse cx="190" cy="190" rx="110" ry="105" fill="#f9a8d4" opacity="0.15" transform="rotate(-10 190 190)"/>
    <ellipse cx="210" cy="210" rx="100" ry="95" fill="#60a5fa" opacity="0.2" transform="rotate(15 210 210)"/>

    <!-- Crown detail -->
    <path d="M 175 130 Q 200 115 225 130 L 215 145 L 200 138 L 185 145 Z" fill="#3b82f6" opacity="0.6"/>

    <!-- Refined highlights -->
    <ellipse cx="170" cy="175" rx="20" ry="24" fill="rgba(255,255,255,0.35)" transform="rotate(-15 170 175)"/>
    <ellipse cx="220" cy="195" rx="15" ry="18" fill="rgba(255,255,255,0.25)" transform="rotate(25 220 195)"/>
  </g>

  <!-- Single elegant accent -->
  <circle cx="280" cy="120" r="2" fill="url(#goldAccent)" opacity="0.5"/>
</svg>